<svg xmlns="http://www.w3.org/2000/svg" xmlns:xlink="http://www.w3.org/1999/xlink" width="500" zoomAndPan="magnify" viewBox="0 0 375 374.999991" height="500" preserveAspectRatio="xMidYMid meet" version="1.0"><defs><clipPath id="0bd921bc7a"><path d="M 112.5 141.339844 L 262.5 141.339844 L 262.5 273.339844 L 112.5 273.339844 Z M 112.5 141.339844 " clip-rule="nonzero"/></clipPath></defs><g clip-path="url(#0bd921bc7a)"><path fill="#3a4e63" d="M 221.761719 222.953125 C 221.761719 221.28125 223.117188 219.929688 224.792969 219.929688 L 239.839844 219.929688 C 241.515625 219.929688 242.871094 221.28125 242.871094 222.953125 C 242.871094 224.625 241.515625 225.976562 239.839844 225.976562 L 224.792969 225.976562 C 223.117188 225.976562 221.761719 224.625 221.761719 222.953125 Z M 137.707031 225.976562 L 142.203125 225.976562 L 142.203125 230.46875 C 142.203125 232.136719 143.558594 233.492188 145.230469 233.492188 C 146.902344 233.492188 148.257812 232.136719 148.257812 230.46875 L 148.257812 225.976562 L 152.753906 225.976562 C 154.425781 225.976562 155.785156 224.625 155.785156 222.953125 C 155.785156 221.28125 154.425781 219.929688 152.753906 219.929688 L 148.257812 219.929688 L 148.257812 215.441406 C 148.257812 213.769531 146.902344 212.414062 145.230469 212.414062 C 143.558594 212.414062 142.203125 213.769531 142.203125 215.441406 L 142.203125 219.929688 L 137.707031 219.929688 C 136.03125 219.929688 134.675781 221.28125 134.675781 222.953125 C 134.675781 224.625 136.03125 225.976562 137.707031 225.976562 Z M 262.492188 174.992188 L 262.492188 270.316406 C 262.492188 271.988281 261.136719 273.34375 259.464844 273.34375 L 115.535156 273.34375 C 113.863281 273.34375 112.507812 271.988281 112.507812 270.316406 L 112.507812 174.992188 C 112.507812 173.320312 113.863281 171.96875 115.535156 171.96875 L 126.6875 171.96875 L 126.6875 160.644531 C 126.6875 158.972656 128.042969 157.621094 129.71875 157.621094 L 135.046875 157.621094 L 135.046875 144.363281 C 135.046875 142.691406 136.402344 141.339844 138.078125 141.339844 L 150.433594 141.339844 C 152.105469 141.339844 153.460938 142.691406 153.460938 144.363281 L 153.460938 157.621094 L 158.792969 157.621094 C 160.464844 157.621094 161.820312 158.972656 161.820312 160.644531 L 161.820312 171.96875 L 213.542969 171.96875 L 213.542969 160.644531 C 213.542969 158.972656 214.898438 157.621094 216.570312 157.621094 L 221.898438 157.621094 L 221.898438 144.363281 C 221.898438 142.691406 223.257812 141.339844 224.929688 141.339844 L 237.285156 141.339844 C 238.957031 141.339844 240.3125 142.691406 240.3125 144.363281 L 240.3125 157.621094 L 245.644531 157.621094 C 247.316406 157.621094 248.671875 158.972656 248.671875 160.644531 L 248.671875 171.96875 L 259.464844 171.96875 C 261.136719 171.96875 262.492188 173.320312 262.492188 174.992188 Z M 227.957031 157.621094 L 234.257812 157.621094 L 234.257812 147.386719 L 227.957031 147.386719 Z M 219.597656 171.96875 L 242.613281 171.96875 L 242.613281 163.667969 L 219.597656 163.667969 Z M 141.105469 157.621094 L 147.402344 157.621094 L 147.402344 147.386719 L 141.105469 147.386719 Z M 132.746094 171.96875 L 155.761719 171.96875 L 155.761719 163.667969 L 132.746094 163.667969 Z M 256.4375 202.332031 L 118.566406 202.332031 L 118.566406 267.292969 L 256.4375 267.292969 Z M 256.4375 178.015625 L 118.566406 178.015625 L 118.566406 196.285156 L 256.4375 196.285156 Z M 256.4375 178.015625 " fill-opacity="1" fill-rule="nonzero"/></g><path fill="#1bb4ee" d="M 234.257812 147.386719 L 234.257812 157.621094 L 227.957031 157.621094 L 227.957031 147.386719 Z M 141.105469 147.386719 L 141.105469 157.621094 L 147.402344 157.621094 L 147.402344 147.386719 Z M 118.566406 178.015625 L 118.566406 196.285156 L 256.4375 196.285156 L 256.4375 178.015625 Z M 118.566406 178.015625 " fill-opacity="1" fill-rule="nonzero"/></svg>