<svg xmlns="http://www.w3.org/2000/svg" xmlns:xlink="http://www.w3.org/1999/xlink" width="500" zoomAndPan="magnify" viewBox="0 0 375 374.999991" height="500" preserveAspectRatio="xMidYMid meet" version="1.0"><defs><clipPath id="67359bf121"><path d="M 191 193 L 262 193 L 262 254.53125 L 191 254.53125 Z M 191 193 " clip-rule="nonzero"/></clipPath><clipPath id="1b80e18a15"><path d="M 113 198 L 214 198 L 214 254.53125 L 113 254.53125 Z M 113 198 " clip-rule="nonzero"/></clipPath><clipPath id="100d5caa3e"><path d="M 113 184 L 250 184 L 250 254.53125 L 113 254.53125 Z M 113 184 " clip-rule="nonzero"/></clipPath><clipPath id="bc699e1092"><path d="M 151 120.28125 L 224 120.28125 L 224 213 L 151 213 Z M 151 120.28125 " clip-rule="nonzero"/></clipPath></defs><path fill="#1976d2" d="M 248.847656 196.8125 L 244.546875 182.847656 C 244.304688 182.058594 244.003906 181.296875 243.644531 180.554688 C 243.28125 179.816406 242.859375 179.109375 242.386719 178.4375 C 241.910156 177.765625 241.382812 177.132812 240.804688 176.546875 C 240.230469 175.957031 239.609375 175.417969 238.945312 174.929688 C 238.28125 174.441406 237.585938 174.007812 236.851562 173.628906 C 236.117188 173.253906 235.359375 172.9375 234.578125 172.679688 C 233.792969 172.421875 232.992188 172.230469 232.179688 172.101562 C 231.363281 171.976562 230.542969 171.914062 229.71875 171.914062 L 144.761719 171.914062 C 143.9375 171.914062 143.117188 171.976562 142.304688 172.105469 C 141.488281 172.230469 140.6875 172.425781 139.90625 172.679688 C 139.121094 172.9375 138.363281 173.253906 137.628906 173.628906 C 136.898438 174.007812 136.199219 174.441406 135.535156 174.929688 C 134.871094 175.421875 134.25 175.960938 133.675781 176.546875 C 133.097656 177.136719 132.570312 177.765625 132.09375 178.441406 C 131.621094 179.113281 131.199219 179.820312 130.839844 180.558594 C 130.476562 181.296875 130.175781 182.0625 129.933594 182.851562 L 127.660156 190.238281 C 127.488281 190.796875 127.414062 191.363281 127.4375 191.945312 C 127.457031 192.523438 127.574219 193.085938 127.785156 193.625 C 127.996094 194.167969 128.289062 194.660156 128.664062 195.101562 C 129.042969 195.542969 129.480469 195.914062 129.984375 196.207031 L 205.800781 240.746094 C 206.308594 241.042969 206.847656 241.25 207.425781 241.363281 C 208.003906 241.476562 208.582031 241.488281 209.164062 241.40625 C 209.746094 241.320312 210.296875 241.140625 210.820312 240.871094 C 211.339844 240.597656 211.800781 240.246094 212.199219 239.816406 L 247.683594 201.851562 C 248.316406 201.175781 248.734375 200.390625 248.941406 199.488281 C 249.152344 198.589844 249.117188 197.695312 248.847656 196.8125 Z M 248.847656 196.8125 " fill-opacity="1" fill-rule="nonzero"/><path fill="#689f38" d="M 155.511719 199.226562 L 135.226562 187.308594 C 134.890625 187.109375 134.535156 186.953125 134.164062 186.835938 C 133.792969 186.71875 133.410156 186.644531 133.023438 186.613281 C 132.632812 186.582031 132.246094 186.59375 131.859375 186.648438 C 131.472656 186.703125 131.097656 186.804688 130.734375 186.945312 C 130.371094 187.085938 130.027344 187.265625 129.703125 187.484375 C 129.378906 187.703125 129.085938 187.957031 128.820312 188.242188 C 128.554688 188.527344 128.324219 188.835938 128.128906 189.175781 C 127.933594 189.511719 127.777344 189.867188 127.664062 190.242188 L 117.414062 223.5 C 117.257812 224.015625 117.179688 224.539062 117.1875 225.078125 C 117.191406 225.617188 117.28125 226.140625 117.449219 226.648438 C 117.621094 227.160156 117.863281 227.632812 118.183594 228.066406 C 118.5 228.5 118.878906 228.875 119.3125 229.191406 C 119.746094 229.507812 120.222656 229.75 120.730469 229.921875 C 121.242188 230.089844 121.769531 230.175781 122.308594 230.179688 C 122.84375 230.1875 123.371094 230.109375 123.886719 229.949219 C 124.402344 229.789062 124.878906 229.558594 125.320312 229.25 L 155.851562 207.90625 C 156.027344 207.78125 156.195312 207.648438 156.355469 207.503906 C 156.515625 207.359375 156.667969 207.207031 156.804688 207.042969 C 156.945312 206.878906 157.078125 206.707031 157.195312 206.527344 C 157.316406 206.347656 157.421875 206.164062 157.519531 205.96875 C 157.613281 205.777344 157.699219 205.578125 157.769531 205.375 C 157.839844 205.171875 157.898438 204.964844 157.941406 204.753906 C 157.988281 204.542969 158.019531 204.332031 158.039062 204.117188 C 158.054688 203.902344 158.0625 203.6875 158.054688 203.472656 C 158.042969 203.257812 158.023438 203.042969 157.988281 202.832031 C 157.953125 202.621094 157.902344 202.410156 157.84375 202.203125 C 157.78125 201.996094 157.707031 201.796875 157.621094 201.597656 C 157.535156 201.402344 157.433594 201.210938 157.324219 201.027344 C 157.214844 200.839844 157.09375 200.664062 156.960938 200.492188 C 156.828125 200.324219 156.683594 200.164062 156.53125 200.011719 C 156.378906 199.859375 156.214844 199.71875 156.046875 199.585938 C 155.875 199.457031 155.695312 199.335938 155.511719 199.226562 Z M 155.511719 199.226562 " fill-opacity="1" fill-rule="nonzero"/><g clip-path="url(#67359bf121)"><path fill="#689f38" d="M 260.453125 234.484375 L 248.84375 196.8125 C 248.777344 196.597656 248.699219 196.386719 248.605469 196.183594 C 248.511719 195.976562 248.40625 195.777344 248.285156 195.589844 C 248.164062 195.398438 248.03125 195.214844 247.890625 195.042969 C 247.746094 194.867188 247.589844 194.703125 247.425781 194.550781 C 247.261719 194.398438 247.085938 194.253906 246.902344 194.125 C 246.71875 193.992188 246.527344 193.875 246.328125 193.769531 C 246.128906 193.664062 245.921875 193.570312 245.710938 193.492188 C 245.5 193.414062 245.285156 193.347656 245.0625 193.296875 C 244.84375 193.246094 244.621094 193.210938 244.398438 193.191406 C 244.171875 193.167969 243.949219 193.164062 243.722656 193.171875 C 243.496094 193.179688 243.273438 193.199219 243.050781 193.238281 C 242.828125 193.277344 242.609375 193.328125 242.390625 193.394531 C 242.175781 193.460938 241.964844 193.539062 241.761719 193.632812 C 241.554688 193.726562 241.355469 193.832031 241.164062 193.953125 C 240.972656 194.070312 240.789062 194.203125 240.617188 194.347656 C 240.441406 194.488281 240.277344 194.644531 240.125 194.808594 L 192.425781 245.84375 C 192.082031 246.214844 191.796875 246.621094 191.574219 247.074219 C 191.351562 247.523438 191.195312 247.996094 191.109375 248.492188 C 191.023438 248.988281 191.011719 249.484375 191.070312 249.984375 C 191.132812 250.484375 191.261719 250.964844 191.464844 251.425781 C 191.664062 251.886719 191.925781 252.308594 192.25 252.695312 C 192.574219 253.078125 192.949219 253.410156 193.371094 253.683594 C 193.789062 253.960938 194.242188 254.171875 194.726562 254.316406 C 195.207031 254.460938 195.699219 254.53125 196.203125 254.53125 L 245.628906 254.53125 C 246.234375 254.53125 246.835938 254.496094 247.4375 254.425781 C 248.039062 254.355469 248.632812 254.25 249.21875 254.109375 C 249.808594 253.96875 250.386719 253.796875 250.953125 253.589844 C 251.523438 253.382812 252.078125 253.140625 252.617188 252.871094 C 253.15625 252.597656 253.679688 252.296875 254.183594 251.960938 C 254.6875 251.628906 255.171875 251.269531 255.632812 250.878906 C 256.097656 250.488281 256.535156 250.074219 256.945312 249.632812 C 257.359375 249.191406 257.746094 248.730469 258.105469 248.242188 C 258.464844 247.757812 258.796875 247.253906 259.09375 246.726562 C 259.394531 246.203125 259.664062 245.664062 259.902344 245.109375 C 260.136719 244.550781 260.339844 243.984375 260.511719 243.40625 C 260.683594 242.824219 260.816406 242.238281 260.921875 241.644531 C 261.023438 241.046875 261.089844 240.449219 261.121094 239.84375 C 261.152344 239.242188 261.148438 238.640625 261.109375 238.035156 C 261.070312 237.433594 260.996094 236.835938 260.886719 236.242188 C 260.777344 235.648438 260.632812 235.0625 260.453125 234.484375 Z M 260.453125 234.484375 " fill-opacity="1" fill-rule="nonzero"/></g><g clip-path="url(#1b80e18a15)"><path fill="#1976d2" d="M 211.042969 231.84375 L 155.507812 199.226562 C 155.082031 198.976562 154.628906 198.789062 154.148438 198.667969 C 153.667969 198.546875 153.179688 198.496094 152.683594 198.515625 C 152.1875 198.535156 151.707031 198.625 151.238281 198.78125 C 150.765625 198.941406 150.328125 199.160156 149.921875 199.445312 L 119.390625 220.789062 C 118.421875 221.464844 117.761719 222.371094 117.414062 223.5 L 114.027344 234.484375 C 113.851562 235.058594 113.707031 235.644531 113.597656 236.238281 C 113.488281 236.832031 113.414062 237.433594 113.375 238.035156 C 113.335938 238.636719 113.332031 239.242188 113.363281 239.84375 C 113.394531 240.445312 113.460938 241.046875 113.5625 241.640625 C 113.664062 242.238281 113.800781 242.824219 113.96875 243.402344 C 114.140625 243.984375 114.34375 244.550781 114.582031 245.105469 C 114.816406 245.664062 115.085938 246.203125 115.386719 246.726562 C 115.6875 247.25 116.015625 247.757812 116.375 248.242188 C 116.734375 248.726562 117.121094 249.191406 117.535156 249.632812 C 117.949219 250.074219 118.386719 250.488281 118.847656 250.878906 C 119.3125 251.269531 119.792969 251.628906 120.296875 251.960938 C 120.804688 252.296875 121.324219 252.597656 121.867188 252.871094 C 122.40625 253.140625 122.960938 253.382812 123.527344 253.589844 C 124.09375 253.796875 124.671875 253.96875 125.261719 254.109375 C 125.851562 254.25 126.445312 254.355469 127.046875 254.425781 C 127.648438 254.496094 128.25 254.53125 128.855469 254.53125 L 196.203125 254.53125 C 196.921875 254.53125 197.609375 254.386719 198.265625 254.101562 C 198.921875 253.816406 199.496094 253.414062 199.984375 252.890625 L 212.203125 239.816406 C 212.464844 239.535156 212.695312 239.226562 212.890625 238.890625 C 213.085938 238.558594 213.242188 238.207031 213.355469 237.835938 C 213.472656 237.46875 213.546875 237.089844 213.578125 236.707031 C 213.605469 236.320312 213.59375 235.9375 213.539062 235.554688 C 213.484375 235.171875 213.386719 234.800781 213.246094 234.4375 C 213.109375 234.078125 212.929688 233.738281 212.714844 233.414062 C 212.496094 233.09375 212.25 232.800781 211.964844 232.535156 C 211.683594 232.273438 211.375 232.042969 211.042969 231.84375 Z M 211.042969 231.84375 " fill-opacity="1" fill-rule="nonzero"/></g><g clip-path="url(#100d5caa3e)"><path fill="#ffb300" d="M 249.703125 199.644531 L 198.410156 254.53125 L 184.292969 254.53125 L 200.21875 237.492188 L 153.113281 209.816406 L 113.351562 237.59375 C 113.453125 236.535156 113.675781 235.503906 114.023438 234.496094 L 117.953125 221.792969 L 143.34375 204.03125 L 126.484375 194.117188 L 129.589844 184 L 207.457031 229.746094 L 245.515625 189.058594 C 245.71875 188.808594 245.960938 188.601562 246.238281 188.4375 Z M 249.703125 199.644531 " fill-opacity="1" fill-rule="nonzero"/></g><g clip-path="url(#bc699e1092)"><path fill="#f44336" d="M 212.480469 131.070312 C 210.753906 129.378906 208.875 127.871094 206.839844 126.558594 C 204.808594 125.246094 202.664062 124.148438 200.40625 123.269531 C 198.152344 122.390625 195.828125 121.75 193.441406 121.339844 C 191.054688 120.933594 188.652344 120.769531 186.230469 120.847656 C 185.082031 120.890625 183.933594 120.988281 182.792969 121.136719 C 181.648438 121.289062 180.515625 121.492188 179.394531 121.75 C 178.273438 122.003906 177.164062 122.316406 176.070312 122.675781 C 174.976562 123.039062 173.902344 123.453125 172.847656 123.914062 C 171.792969 124.378906 170.765625 124.890625 169.757812 125.453125 C 168.753906 126.011719 167.777344 126.621094 166.828125 127.273438 C 165.878906 127.925781 164.964844 128.621094 164.082031 129.363281 C 163.199219 130.101562 162.355469 130.882812 161.546875 131.703125 C 160.738281 132.519531 159.96875 133.375 159.242188 134.269531 C 158.515625 135.160156 157.832031 136.085938 157.191406 137.042969 C 156.550781 138 155.960938 138.984375 155.414062 139.996094 C 154.867188 141.007812 154.371094 142.046875 153.921875 143.105469 C 153.472656 144.164062 153.074219 145.242188 152.730469 146.339844 C 152.382812 147.4375 152.089844 148.546875 151.851562 149.671875 C 151.609375 150.796875 151.421875 151.933594 151.289062 153.074219 C 151.15625 154.21875 151.078125 155.363281 151.050781 156.515625 C 150.984375 160.460938 151.5625 164.308594 152.78125 168.0625 C 154 171.820312 155.792969 175.273438 158.167969 178.429688 C 158.816406 179.40625 175.117188 202.039062 180.328125 209.246094 C 180.515625 209.511719 180.722656 209.761719 180.941406 210 C 181.160156 210.238281 181.394531 210.464844 181.640625 210.675781 C 181.886719 210.886719 182.144531 211.082031 182.414062 211.261719 C 182.679688 211.445312 182.960938 211.609375 183.25 211.757812 C 183.539062 211.90625 183.832031 212.035156 184.136719 212.148438 C 184.441406 212.261719 184.75 212.359375 185.066406 212.433594 C 185.382812 212.511719 185.699219 212.570312 186.023438 212.609375 C 186.34375 212.648438 186.667969 212.667969 186.992188 212.671875 C 187.316406 212.671875 187.640625 212.65625 187.964844 212.617188 C 188.285156 212.582031 188.605469 212.527344 188.921875 212.453125 C 189.238281 212.378906 189.546875 212.285156 189.851562 212.175781 C 190.160156 212.0625 190.457031 211.9375 190.746094 211.789062 C 191.035156 211.644531 191.316406 211.480469 191.585938 211.304688 C 191.859375 211.125 192.117188 210.929688 192.363281 210.722656 C 192.613281 210.511719 192.847656 210.289062 193.070312 210.050781 C 193.289062 209.816406 193.496094 209.566406 193.691406 209.304688 C 193.886719 209.042969 215.394531 179.679688 216.230469 178.613281 C 218.554688 175.484375 220.335938 172.070312 221.566406 168.371094 C 222.796875 164.671875 223.421875 160.875 223.4375 156.976562 C 223.445312 154.5625 223.210938 152.167969 222.734375 149.800781 C 222.257812 147.429688 221.550781 145.132812 220.609375 142.90625 C 219.667969 140.683594 218.511719 138.574219 217.144531 136.578125 C 215.773438 134.585938 214.222656 132.75 212.480469 131.070312 Z M 212.480469 131.070312 " fill-opacity="1" fill-rule="nonzero"/></g><path fill="#eeeeee" d="M 202.753906 157.457031 C 202.753906 158.476562 202.652344 159.484375 202.457031 160.480469 C 202.257812 161.476562 201.960938 162.445312 201.574219 163.386719 C 201.183594 164.324219 200.703125 165.21875 200.140625 166.0625 C 199.574219 166.910156 198.929688 167.691406 198.210938 168.410156 C 197.488281 169.128906 196.707031 169.773438 195.859375 170.339844 C 195.011719 170.902344 194.117188 171.378906 193.175781 171.769531 C 192.238281 172.160156 191.265625 172.453125 190.269531 172.652344 C 189.269531 172.847656 188.261719 172.949219 187.242188 172.949219 C 186.222656 172.949219 185.214844 172.847656 184.214844 172.652344 C 183.214844 172.453125 182.246094 172.160156 181.304688 171.769531 C 180.363281 171.378906 179.46875 170.902344 178.625 170.339844 C 177.777344 169.773438 176.992188 169.128906 176.273438 168.410156 C 175.550781 167.691406 174.910156 166.910156 174.34375 166.0625 C 173.777344 165.21875 173.300781 164.324219 172.910156 163.386719 C 172.519531 162.445312 172.226562 161.476562 172.027344 160.480469 C 171.828125 159.484375 171.730469 158.476562 171.730469 157.457031 C 171.730469 156.441406 171.828125 155.433594 172.027344 154.4375 C 172.226562 153.4375 172.519531 152.46875 172.910156 151.53125 C 173.300781 150.589844 173.777344 149.699219 174.34375 148.851562 C 174.910156 148.007812 175.550781 147.222656 176.273438 146.503906 C 176.992188 145.785156 177.777344 145.144531 178.625 144.578125 C 179.46875 144.011719 180.363281 143.535156 181.304688 143.148438 C 182.246094 142.757812 183.214844 142.464844 184.214844 142.265625 C 185.214844 142.066406 186.222656 141.96875 187.242188 141.96875 C 188.261719 141.96875 189.269531 142.066406 190.269531 142.265625 C 191.265625 142.464844 192.238281 142.757812 193.175781 143.148438 C 194.117188 143.535156 195.011719 144.011719 195.859375 144.578125 C 196.707031 145.144531 197.488281 145.785156 198.210938 146.503906 C 198.929688 147.222656 199.574219 148.007812 200.140625 148.851562 C 200.703125 149.699219 201.183594 150.589844 201.574219 151.53125 C 201.960938 152.46875 202.257812 153.4375 202.457031 154.4375 C 202.652344 155.433594 202.753906 156.441406 202.753906 157.457031 Z M 202.753906 157.457031 " fill-opacity="1" fill-rule="nonzero"/></svg>