<svg xmlns="http://www.w3.org/2000/svg" version="1.1" xmlns:xlink="http://www.w3.org/1999/xlink" width="512" height="512" x="0" y="0" viewBox="0 0 88966 92192" style="enable-background:new 0 0 512 512" xml:space="preserve" fill-rule="evenodd" class=""><g><path fill="#e6e6e6" stroke="#e6e6e6" stroke-width="77.754" d="M11900 84162h4621c5286 0 5286-7990 0-7990H4003c-5285 0-5285-7991 0-7991h12264c5285 0 5285-7990 0-7990h-4405c-5285 0-5285-7991 0-7991h41639c5286 0 5286 7991 0 7991h-2202c-5285 0-5285 7990 0 7990h6005c5285 0 5285 7991 0 7991h-6259c-5286 0-5286 7990 0 7990h1924c5285 0 5285 7991 0 7991H11900c-5286 0-5286-7991 0-7991z" opacity="1" data-original="#e6e6e6" class=""></path><path fill="#c2c2c2" d="M35808 52200h41147c5286 0 5285 7991 0 7991h-4103c-5585 0-6078 7990 612 7990h11539c5285 0 5284 7991 0 7991H68380c-5285 0-5285 7990 0 7990h4022c5286 0 5285 7991 0 7991H33603c-5285 0-5285-7991 0-7991h2205c5320 0 5542-7990 0-7990h-9411c-5285 0-5285-7991 0-7991h6820c5852 181 6545-7990 0-7990h-4167c-5285 0-5285-7991 0-7991zm46300 31962h-24c-2198 0-3995 1798-3995 3995v1c0 2197 1797 3995 3995 3995h24c2197 0 3995-1798 3995-3995v-1c0-2197-1798-3995-3995-3995z" opacity="1" data-original="#c2c2c2" class=""></path><path fill="#ffffff" d="M12717 11228h63755c4080 0 7419 3338 7419 7419v42238c0 4081-3339 7420-7419 7420H12717c-4081 0-7420-3339-7420-7420V18647c0-4081 3339-7419 7420-7419z" opacity="1" data-original="#ffffff" class=""></path><path fill="#e1e1e1" d="M12582 14714h64025c2117 0 3850 1709 3850 3798v42508c0 2089-1733 3798-3850 3798H12582c-2118 0-3850-1709-3850-3798V18512c0-2089 1732-3798 3850-3798z" opacity="1" data-original="#e1e1e1" class=""></path><path fill="#475563" d="M12582 14714h64025c2117 0 3850 1709 3850 3798v1422H8732v-1422c0-2089 1732-3798 3850-3798z" opacity="1" data-original="#475563" class=""></path><path fill="#ffffff" d="M11584 22529h66021v38782H11584z" opacity="1" data-original="#ffffff" class=""></path><path fill="#ffd027" d="M13333 16501c674 0 1220 546 1220 1220s-546 1221-1220 1221-1221-547-1221-1221 547-1220 1221-1220z" opacity="1" data-original="#ffd027"></path><path fill="#00dcab" d="M17718 16501c674 0 1220 546 1220 1220s-546 1221-1220 1221-1221-547-1221-1221 547-1220 1221-1220z" opacity="1" data-original="#00dcab" class=""></path><path fill="#ff576b" d="M22102 16501c675 0 1221 546 1221 1220s-546 1221-1221 1221c-674 0-1220-547-1220-1221s546-1220 1220-1220z" opacity="1" data-original="#ff576b"></path><path fill="#ffd027" d="M62672 65471h3528v20253h-3528z" opacity="1" data-original="#ffd027"></path><path fill="#00dcab" d="M64436 29641c-7581 0-13726 6145-13726 13726 0 7580 6145 13725 13726 13725s13726-6144 13726-13725-6145-13726-13726-13726zm0 1076c6985 0 12649 5664 12649 12650 0 6985-5664 12649-12649 12649-6986 0-12649-5664-12649-12649 0-6986 5663-12650 12649-12650z" opacity="1" data-original="#00dcab" class=""></path><path fill="#ffd027" d="M33635 48936h1873v8268h-1873z" opacity="1" data-original="#ffd027"></path><path fill="#ffd027" d="M25682 50925h1873v6279h-1873z" opacity="1" data-original="#ffd027"></path><path fill="#ffd027" d="M17730 55204h1873v2795h-1873z" opacity="1" data-original="#ffd027"></path><path fill="#ffd027" d="M41730 50925h1873v6279h-1873z" opacity="1" data-original="#ffd027"></path><g fill="none" stroke="#105286" stroke-width="1439.88"><path d="M40195 58960v-9602h4942v9602M62841 41772l856 856m2333-856-856 856m-1477 1477-856 856m2333-856 856 856M70314 3637l856 856m2333-856-856 856m-1477 1477-856 856m2333-856 856 856M2111 6016l856 856m2333-856-856 856M2967 8349l-856 856m2333-856 856 856M21634 720c920 0 1666 746 1666 1666s-746 1666-1666 1666-1667-746-1667-1666 747-1666 1667-1666zM5489 80076c920 0 1666 746 1666 1666 0 921-746 1667-1666 1667s-1666-746-1666-1667c0-920 746-1666 1666-1666zM77239 78762l855 856m2334-856-857 856m-1476 1477-856 856m2332-856 857 856" fill="" opacity="1"></path></g><path fill="#e1e1e1" d="M53349 2309c6018 0 11227 3631 13747 8919-2520 5287-7729 8918-13747 8918-6019 0-11228-3631-13747-8918 2519-5288 7728-8919 13747-8919z" opacity="1" data-original="#e1e1e1" class=""></path><path fill="#ffffff" d="M41488 11228c2290 4471 6767 7456 11861 7456s9571-2985 11861-7456c-2290-4471-6767-7457-11861-7457s-9571 2986-11861 7457z" opacity="1" data-original="#ffffff" class=""></path><path fill="#53b4ed" d="M53349 7838c1872 0 3390 1517 3390 3390 0 1872-1518 3390-3390 3390s-3390-1518-3390-3390c0-1873 1518-3390 3390-3390z" opacity="1" data-original="#53b4ed" class=""></path><path fill="#475563" d="M53349 9986c686 0 1242 556 1242 1242s-556 1242-1242 1242-1242-556-1242-1242 556-1242 1242-1242z" opacity="1" data-original="#475563" class=""></path><path fill="#ffffff" d="M52068 8015c518 0 939 421 939 939 0 519-421 939-939 939-519 0-939-420-939-939 0-518 420-939 939-939z" opacity="1" data-original="#ffffff" class=""></path></g></svg>