<svg xmlns="http://www.w3.org/2000/svg" version="1.1" xmlns:xlink="http://www.w3.org/1999/xlink" width="512" height="512" x="0" y="0" viewBox="0 0 30669 30669" style="enable-background:new 0 0 512 512" xml:space="preserve" fill-rule="evenodd" class=""><g><path fill="#e6e6e6" d="M4484 28009h1538c1759 0 1759-2659 0-2659H1856c-1759 0-1759-2659 0-2659h4081c1759 0 1759-2659 0-2659H4472c-1759 0-1759-2660 0-2660h13857c1759 0 1759 2660 0 2660h-733c-1759 0-1759 2659 0 2659h1999c1759 0 1759 2659 0 2659h-2083c-1760 0-1760 2659 0 2659h640c1759 0 1759 2659 0 2659H4484c-1759 0-1759-2659 0-2659z" opacity="1" data-original="#e6e6e6"></path><path fill="#c2c2c2" d="M12441 17372h13694c1759 0 1758 2660 0 2660h-1366c-1859 0-2023 2659 203 2659h3841c1759 0 1758 2659 0 2659h-5532c-1759 0-1759 2659 0 2659h1338c1759 0 1759 2660 0 2660H12441l-734-1c-1759 0-1759-2659 0-2659h734c1770 0 1844-2659 0-2659H9309c-1759 0-1759-2659 0-2659h2269c1948 60 2179-2659 0-2659h-1386c-1759 0-1759-2660 0-2660zm15408 10637h-8c-731 0-1329 599-1329 1330s598 1329 1329 1329h8c732 0 1330-598 1330-1329s-598-1330-1330-1330z" opacity="1" data-original="#c2c2c2"></path><circle cx="28049" cy="20596" r="636" fill="#ff576b" opacity="1" data-original="#ff576b"></circle><circle cx="15673" cy="16116" r="7410" fill="#ffffff" opacity="1" data-original="#ffffff" class=""></circle><circle cx="15673" cy="16116" r="6368" fill="#ffd027" opacity="1" data-original="#ffd027" class=""></circle><path fill="#ffffff" d="m20049 26355-1344-6227 5934 2318-1337 1138 2354 2764-1916 1632-2354-2763z" opacity="1" data-original="#ffffff" class=""></path><path fill="#00dcab" d="m20351 25463 1089-928 2667 3132 1181-1006-2667-3131 1089-928-4343-1696z" opacity="1" data-original="#00dcab"></path><path fill="#ff8527" d="M23393 5887h244v-483c-153-153-302-293-344-519-45-245-83-750-88-1367-13-1478 2403-1478 2391 0-5 617-43 1122-89 1367-42 226-190 366-343 519v483h244c736 0 1338 602 1338 1338v1127c0 405-331 736-736 736h-3219c-405 0-736-331-736-736V7225c0-736 602-1338 1338-1338z" opacity="1" data-original="#ff8527"></path><path fill="#53b4ed" d="M23393 5887c681 949 1331 979 2015 0 736 0 1338 602 1338 1338v1127c0 405-331 736-736 736h-3219c-405 0-736-331-736-736V7225c0-736 602-1338 1338-1338z" opacity="1" data-original="#53b4ed"></path><circle cx="27006" cy="9833" r="1823" fill="#ffd027" opacity="1" data-original="#ffd027" class=""></circle><path fill="#ff8527" d="M7357 5887h-244v-483c153-153 302-293 344-519 45-245 83-750 89-1367 12-1478-2404-1478-2392 0 5 617 43 1122 89 1367 42 226 191 366 343 519v483h-244c-736 0-1338 602-1338 1338v1127c0 405 331 736 736 736h3219c405 0 736-331 736-736V7225c0-736-602-1338-1338-1338z" opacity="1" data-original="#ff8527"></path><path fill="#53b4ed" d="M7357 5887c-681 949-1331 979-2015 0-736 0-1338 602-1338 1338v1127c0 405 331 736 736 736h3219c405 0 736-331 736-736V7225c0-736-602-1338-1338-1338z" opacity="1" data-original="#53b4ed"></path><circle cx="3744" cy="9833" r="1823" fill="#ffd027" opacity="1" data-original="#ffd027" class=""></circle><path fill="#e1e1e1" d="M4930 22600c1537 0 2867 927 3510 2277-643 1350-1973 2277-3510 2277-1536 0-2866-927-3509-2277 643-1350 1973-2277 3509-2277z" opacity="1" data-original="#e1e1e1"></path><path fill="#ffffff" d="M1902 24877c585 1141 1728 1903 3028 1903 1301 0 2444-762 3028-1903-584-1142-1727-1904-3028-1904-1300 0-2443 762-3028 1904z" opacity="1" data-original="#ffffff" class=""></path><circle cx="4930" cy="24877" r="865" fill="#53b4ed" opacity="1" data-original="#53b4ed"></circle><circle cx="4930" cy="24877" r="317" fill="#475563" opacity="1" data-original="#475563"></circle><circle cx="4603" cy="24296" r="240" fill="#ffffff" opacity="1" data-original="#ffffff" class=""></circle><circle cx="3760" cy="15663" r="636" fill="#ff576b" opacity="1" data-original="#ff576b"></circle><g fill="none" stroke="#105286" stroke-width="479.193"><circle cx="3760" cy="15663" r="1288" fill="" opacity="1"></circle><path d="M3760 13739v1363m0 1122v1363M5684 15663H4321m-1121 0H1837M921 718l285 285m776-285-284 285m-492 492-285 285m777-285 284 285M28535 718l285 285m776-285-285 285m-491 492-285 285m776-285 285 285M954 28811l285 285m776-285-285 285m-491 492-285 285m776-285 285 285M28709 26275l284 284m777-284-285 284m-492 492-284 285m776-285 285 285" fill="" opacity="1"></path><circle cx="16034" cy="2619" r="655" fill="" opacity="1"></circle><circle cx="28730" cy="15410" r="552" fill="" opacity="1"></circle><path d="m24899 13807 285 285m776-285-284 285m-492 491-285 285m777-285 284 285M6427 12093l285 284m777-284-285 284m-492 492-285 285m777-285 285 285" fill="" opacity="1"></path><circle cx="1223" cy="18824" r="552" fill="" opacity="1"></circle><circle cx="16464" cy="27328" r="655" fill="" opacity="1"></circle></g></g></svg>