<svg xmlns="http://www.w3.org/2000/svg" version="1.1" xmlns:xlink="http://www.w3.org/1999/xlink" width="512" height="512" x="0" y="0" viewBox="0 0 512 512" style="enable-background:new 0 0 512 512" xml:space="preserve" class=""><g><path fill="#fee066" d="M256 436c-99.252 0-180-80.748-180-180S156.748 76 256 76s180 80.748 180 180-80.748 180-180 180z" opacity="1" data-original="#fee066" class=""></path><path fill="#3a69ff" d="M116 132a4 4 0 0 1-4-4V96a4 4 0 0 1 8 0v32a4 4 0 0 1-4 4z" opacity="1" data-original="#3a69ff" class=""></path><path fill="#154dfc" d="M216 472h-10.7l14.543-50.9-7.692-2.2-15.168 53.1H184a4 4 0 0 0 0 8h32a4 4 0 0 0 0-8zM304 472h-10.7l14.543-50.9-7.692-2.2-15.168 53.1H272a4 4 0 0 0 0 8h32a4 4 0 0 0 0-8z" opacity="1" data-original="#154dfc"></path><path fill="#5f86fe" d="M104 349h56v48h-56z" opacity="1" data-original="#5f86fe" class=""></path><path fill="#3a69ff" d="M124 373h16v24h-16zM76 293h16v32H76zM36 349h68v48H36z" opacity="1" data-original="#3a69ff" class=""></path><path fill="#5f86fe" d="m28 349 40-40h64v40z" opacity="1" data-original="#5f86fe" class=""></path><path fill="#3a69ff" d="M264.464 152h-96l.616-2.155A399.854 399.854 0 0 0 184.464 40h64a399.817 399.817 0 0 0 15.385 109.845z" opacity="1" data-original="#3a69ff" class=""></path><path fill="#83a1ff" d="M240.464 96h72v56h-72z" opacity="1" data-original="#83a1ff" class=""></path><path fill="#5f86fe" d="M288.465 96h-16V24h16zM275.464 108h37v8h-37z" opacity="1" data-original="#5f86fe" class=""></path><path fill="#3a69ff" d="M272.464 36h16v8h-16z" opacity="1" data-original="#3a69ff" class=""></path><path fill="#83a1ff" d="M336 144h104v48H336z" opacity="1" data-original="#83a1ff" class=""></path><path fill="#5f86fe" d="M416 144h-16V64h16zM376 144h-16V64h16z" opacity="1" data-original="#5f86fe" class=""></path><path fill="#3a69ff" d="M400 76h16v8h-16zM360 76h16v8h-16z" opacity="1" data-original="#3a69ff" class=""></path><path fill="#5f86fe" d="M352 156h72v8h-72z" opacity="1" data-original="#5f86fe" class=""></path><path fill="#3a69ff" d="M472 192h-16V64h16z" opacity="1" data-original="#3a69ff" class=""></path><path fill="#154dfc" d="M456 84h16v8h-16z" opacity="1" data-original="#154dfc"></path><path fill="#3a69ff" d="M136 264H96V152h40z" opacity="1" data-original="#3a69ff" class=""></path><path fill="#5f86fe" d="M112 264H48v-64h64z" opacity="1" data-original="#5f86fe" class=""></path><path fill="#83a1ff" d="M64 212h48v8H64zM64 228h48v8H64zM64 244h48v8H64z" opacity="1" data-original="#83a1ff" class=""></path><path fill="#5f86fe" d="M128 152h-24v-24h24z" opacity="1" data-original="#5f86fe" class=""></path><path fill="#154dfc" d="M96 164h24v8H96zM96 180h24v8H96z" opacity="1" data-original="#154dfc"></path><path fill="#5f86fe" d="M264 452h-72l-8-64h48z" opacity="1" data-original="#5f86fe" class=""></path><path fill="#3a69ff" d="m258 440-4-8h-17.23l-3-8H250l-4-8h-15.23l-3-8H242l-4-8h-13.23l-4.5-12h-8.54l4.5 12h-9.11l-3-12h-8.24l3 12H185.5l1 8h14.38l2 8H187.5l1 8h16.38l2 8H189.5l1 8h18.38l3 12h8.24l-3-12h14.11l4.5 12h8.54l-4.5-12zm-46.88-24-2-8h10.11l3 8zm4 16-2-8h12.11l3 8z" opacity="1" data-original="#3a69ff" class=""></path><path fill="#5f86fe" d="M352 452h-72l-8-64h48z" opacity="1" data-original="#5f86fe" class=""></path><path fill="#3a69ff" d="m406.41 308.473-4 136h16l-4-136z" opacity="1" data-original="#3a69ff" class=""></path><path fill="#5f86fe" d="m488 332.785-33.824-22.803-34.759-10.188-3.084 7.382 31.675 17.569zM332.628 332.348l40.041-7.793 31.783-17.374-3.039-7.401-34.821 9.974zM409.999 216l7.896 40.021-4.094 35.989-8-.021-3.906-36.01z" opacity="1" data-original="#5f86fe" class=""></path><g fill="#fcc419"><path d="M256 348a4 4 0 0 1-4-4v-32a4 4 0 0 1 8 0v32a4 4 0 0 1-4 4zM256 204a4 4 0 0 1-4-4v-32a4 4 0 0 1 8 0v32a4 4 0 0 1-4 4zM200 260h-48a4 4 0 0 1 0-8h48a4 4 0 0 1 0 8zM368 260h-56a4 4 0 0 1 0-8h56a4 4 0 0 1 0 8zM216 220a3.994 3.994 0 0 1-2.829-1.171l-24-24a4 4 0 0 1 5.658-5.658l24 24A4 4 0 0 1 216 220zM320 324a3.994 3.994 0 0 1-2.829-1.171l-24-24a4 4 0 0 1 5.658-5.658l24 24A4 4 0 0 1 320 324zM192 324a4 4 0 0 1-2.829-6.829l24-24a4 4 0 0 1 5.658 5.658l-24 24A3.994 3.994 0 0 1 192 324zM296 220a4 4 0 0 1-2.829-6.829l20-20a4 4 0 0 1 5.658 5.658l-20 20A3.994 3.994 0 0 1 296 220z" fill="#fcc419" opacity="1" data-original="#fcc419" class=""></path></g><path fill="#3a69ff" d="m346 440-4-8h-17.23l-3-8H338l-4-8h-15.23l-3-8H330l-4-8h-13.23l-4.5-12h-8.54l4.5 12h-9.03l-3.07-12h-8.26l3.07 12H273.5l1 8h14.49l2.05 8H275.5l1 8h16.59l2.04 8H277.5l1 8h18.68l3.08 12h8.25l-3.07-12h13.79l4.5 12h8.54l-4.5-12zm-46.7-24-2.05-8h9.98l3 8zm4.09 16-2.05-8h11.89l3 8z" opacity="1" data-original="#3a69ff" class=""></path><circle cx="410.494" cy="300.401" r="12.401" fill="#154dfc" opacity="1" data-original="#154dfc"></circle><path fill="#83a1ff" d="M176 349H88l44-40z" opacity="1" data-original="#83a1ff" class=""></path><path fill="#f5a000" d="M256 316a60 60 0 1 1 60-60 60.068 60.068 0 0 1-60 60zm0-112a52 52 0 1 0 52 52 52.059 52.059 0 0 0-52-52z" opacity="1" data-original="#f5a000" class=""></path></g></svg>